<svg xmlns="http://www.w3.org/2000/svg" width="1240" height="1240"><path d="M596.5 20.618c-122.772 5.645-239.586 47.175-336 119.455C132.621 235.941 48.075 379.106 26.095 537c-7.455 53.557-7.455 112.443 0 166 13.887 99.758 53.485 195.819 113.977 276.5 82.906 110.576 200.983 188.862 335.428 222.392 135.66 33.833 279.099 18.969 405.475-42.017 120.246-58.029 217.167-154.21 276.485-274.375 34.668-70.23 54.224-141.751 60.701-222 1.558-19.303 1.558-67.697 0-87-6.435-79.736-25.959-151.472-60.148-221C1065.041 166.426 881.186 40.73 671 22.542c-17.604-1.523-59.62-2.608-74.5-1.924m-33 300.311c-6.899 1.694-12.488 6.221-16.136 13.071-1.533 2.878-1.864 5.722-1.864 16 0 10.278.331 13.122 1.864 16 2.609 4.899 6.456 8.816 11.136 11.342l4 2.158h385l4-2.158c4.68-2.526 8.527-6.443 11.136-11.342 1.533-2.878 1.864-5.722 1.864-16 0-10.278-.331-13.122-1.864-16-2.609-4.899-6.456-8.816-11.136-11.342l-4-2.158-190.5-.154c-104.775-.085-191.85.177-193.5.583m0 270c-6.899 1.694-12.488 6.221-16.136 13.071-1.533 2.878-1.864 5.722-1.864 16 0 10.278.331 13.122 1.864 16 2.609 4.899 6.456 8.816 11.136 11.342l4 2.158h385l4-2.158c4.68-2.526 8.527-6.443 11.136-11.342 1.533-2.878 1.864-5.722 1.864-16 0-10.278-.331-13.122-1.864-16-2.609-4.899-6.456-8.816-11.136-11.342l-4-2.158-190.5-.154c-104.775-.085-191.85.177-193.5.583m0 270c-6.899 1.694-12.488 6.221-16.136 13.071-1.533 2.878-1.864 5.722-1.864 16 0 10.278.331 13.122 1.864 16 2.609 4.899 6.456 8.816 11.136 11.342l4 2.158h385l4-2.158c4.68-2.526 8.527-6.443 11.136-11.342 1.533-2.878 1.864-5.722 1.864-16 0-10.278-.331-13.122-1.864-16-2.609-4.899-6.456-8.816-11.136-11.342l-4-2.158-190.5-.154c-104.775-.085-191.85.177-193.5.583" fill="undefined" fill-rule="evenodd"/></svg>